<?xml version="1.0" encoding="iso-8859-1"?>
<!-- Generator: Adobe Illustrator 19.0.0, SVG Export Plug-In . SVG Version: 6.00 Build 0)  -->
<svg version="1.1" id="Layer_1" xmlns="http://www.w3.org/2000/svg" xmlns:xlink="http://www.w3.org/1999/xlink" x="0px" y="0px"
	 viewBox="0 0 327.214 327.214" style="enable-background:new 0 0 327.214 327.214;" xml:space="preserve">
<g id="XMLID_452_">
	<g id="XMLID_453_">
		<path id="XMLID_16_" style="fill:#2B7B57;" d="M146.882,182.719h33.452v127.769c0,9.237-7.488,16.726-16.726,16.726l0,0
			c-9.237,0-16.726-7.488-16.726-16.726V182.719z"/>
	</g>
	<path id="XMLID_3_" style="fill:#49B86E;" d="M104.076,250.909c39.806,0,54.945-26.406,59.532-37.59
		c4.582,11.183,19.784,37.59,59.59,37.59c40.483,0,76.095-29.597,76.095-83.642c0-21.87-4.162-40.605-15.712-61.514
		C263.366,69.157,203.151,23.32,176.52,4.17c-7.722-5.553-18.112-5.561-25.842-0.019C124.07,23.23,63.971,68.885,43.605,105.753
		c-11.55,20.909-15.683,39.645-15.683,61.514C27.922,221.312,63.592,250.909,104.076,250.909z"/>
</g>
<g>
</g>
<g>
</g>
<g>
</g>
<g>
</g>
<g>
</g>
<g>
</g>
<g>
</g>
<g>
</g>
<g>
</g>
<g>
</g>
<g>
</g>
<g>
</g>
<g>
</g>
<g>
</g>
<g>
</g>
</svg>
