<?xml version="1.0" encoding="utf-8"?>
<svg viewBox="0 0 512 512" style="enable-background:new 0 0 512 512;" xmlns="http://www.w3.org/2000/svg">
  <g/>
  <g/>
  <g/>
  <g/>
  <g/>
  <g/>
  <g/>
  <g/>
  <g/>
  <g/>
  <g/>
  <g/>
  <g/>
  <g/>
  <g/>
  <g transform="matrix(1.649187, -0.769029, 0.769029, 1.649187, -1136.621704, 779.153503)" style="">
    <path style="fill: rgb(170, 25, 33);" d="M 743.802 -7.353 C 743.802 -20.68 750.235 -32.768 758.798 -41.665 C 757.808 -42.655 756.817 -43.643 755.829 -44.636 C 746.503 -34.976 740.757 -21.838 740.757 -7.353 C 740.757 3.424 743.945 13.455 749.414 21.865 L 749.414 21.865 C 744.666 14.27 743.802 2.263 743.802 -7.353 Z" transform="matrix(0.999181, -0.040453, 0.040453, 0.999181, 1.074314, 30.321441)"/>
    <path style="fill: rgb(240, 91, 86);" d="M 781.894 5.469 C 770.588 0.53 758.298 0.631 747.329 4.782 C 736.362 0.631 724.069 0.53 712.765 5.469 C 688.965 15.868 682.757 44.644 693.058 69.739 C 702.621 93.045 726.127 104.967 747.329 98.225 C 768.532 104.969 792.036 93.045 801.601 69.739 C 811.897 44.644 805.691 15.868 781.894 5.469 Z" transform="matrix(0.999181, -0.040453, 0.040453, 0.999181, -1.447546, 30.273344)"/>
    <path style="fill: rgb(255, 130, 125);" d="M 735.069 33.948 C 735.069 43.783 727.095 51.76 717.26 51.76 L 717.26 51.76 C 707.425 51.76 699.452 43.783 699.452 33.948 L 699.452 33.948 C 699.452 24.113 707.425 16.138 717.26 16.138 L 717.26 16.138 C 727.095 16.139 735.069 24.114 735.069 33.948 L 735.069 33.948 Z" transform="matrix(0.999181, -0.040453, 0.040453, 0.999181, -0.78622, 29.04314)"/>
    <path style="fill: rgb(204, 51, 60);" d="M 789.676 9.601 C 799.643 23.246 800.743 43.115 793.364 61.096 C 783.799 84.403 760.294 96.323 739.092 89.579 C 725.805 93.806 711.616 90.701 700.517 82.06 C 712.113 96.815 730.533 103.369 747.487 97.978 C 768.689 104.72 792.193 92.797 801.759 69.49 C 810.851 47.332 807.065 22.313 789.676 9.601 Z" transform="matrix(0.999181, -0.040453, 0.040453, 0.999181, -1.597, 30.527335)"/>
    <path style="fill: rgb(105, 166, 70);" d="M 768.33 -32.523 C 759.794 -33.592 751.686 -30.604 745.938 -25.067 C 750.14 -18.283 757.255 -13.383 765.79 -12.306 C 774.327 -11.236 782.435 -14.225 788.184 -19.758 C 783.98 -26.55 776.865 -31.449 768.33 -32.523 Z" transform="matrix(0.999181, -0.040453, 0.040453, 0.999181, 1.534612, 31.011584)"/>
  </g>
  <g transform="matrix(1, 0, 0, 1, -0.896672, 105.807358)">
    <path style="fill:#88888F;" d="M 274.286 244.183 L 237.715 244.183 C 234.363 244.183 231.62 241.44 231.62 238.088 L 231.62 91.802 C 231.62 88.45 234.363 85.707 237.715 85.707 L 274.286 85.707 C 277.638 85.707 280.381 88.45 280.381 91.802 L 280.381 238.088 C 280.381 241.44 277.638 244.183 274.286 244.183 Z"/>
    <path style="fill:#797781;" d="M 274.286 85.707 L 249.905 85.707 C 253.257 85.707 256 88.45 256 91.802 L 256 238.088 C 256 241.44 253.257 244.183 249.905 244.183 L 274.286 244.183 C 277.638 244.183 280.381 241.44 280.381 238.088 L 280.381 91.802 C 280.381 88.45 277.638 85.707 274.286 85.707 Z"/>
    <path style="fill:#DC4161;" d="M 36.571 305.135 L 57.152 480.074 C 59.318 498.493 74.928 512.373 93.472 512.373 L 418.525 512.373 C 437.07 512.373 452.679 498.493 454.845 480.074 L 475.427 305.135 L 36.571 305.135 Z"/>
    <path style="fill:#C5142C;" d="M 438.857 305.135 L 414.476 512.373 L 418.527 512.373 C 437.072 512.373 452.681 498.493 454.847 480.074 L 475.428 305.135 L 438.857 305.135 Z"/>
    <path style="fill:#E07188;" d="M 493.714 317.326 L 18.286 317.326 C 8.229 317.326 0 309.097 0 299.04 L 0 238.088 C 0 228.031 8.229 219.802 18.286 219.802 L 493.715 219.802 C 503.772 219.802 512.001 228.031 512.001 238.088 L 512.001 299.04 C 512 309.097 503.771 317.326 493.714 317.326 Z"/>
    <g transform="matrix(1, 0, 0, 1, 0, 43.040279)">
      <path style="fill:#DC4161;" d="M493.714,176.762h-24.381c3.352,0,6.095,2.743,6.095,6.095v85.333c0,3.352-2.743,6.095-6.095,6.095 h24.381c10.057,0,18.286-8.229,18.286-18.286v-60.952C512,184.99,503.771,176.762,493.714,176.762z"/>
      <circle style="fill:#DC4161;" cx="256" cy="225.524" r="48.762"/>
    </g>
    <path style="fill:#C5142C;" d="M 256 219.802 C 251.791 219.802 247.706 220.336 243.81 221.338 C 264.841 226.751 280.381 245.842 280.381 268.564 C 280.381 291.286 264.841 310.376 243.81 315.79 C 247.706 316.793 251.791 317.326 256 317.326 C 282.93 317.326 304.762 295.494 304.762 268.564 C 304.762 241.634 282.93 219.802 256 219.802 Z"/>
    <path style="fill:#58575D;" d="M 256 283.802 C 247.597 283.802 240.762 276.967 240.762 268.564 C 240.762 260.161 247.597 253.326 256 253.326 C 264.403 253.326 271.238 260.161 271.238 268.564 C 271.238 276.967 264.403 283.802 256 283.802 Z M 256 265.516 C 254.32 265.516 252.952 266.884 252.952 268.564 C 252.952 270.244 254.32 271.612 256 271.612 C 257.681 271.612 259.048 270.244 259.048 268.564 C 259.048 266.884 257.681 265.516 256 265.516 Z"/>
    <g transform="matrix(1, 0, 0, 1, 0, 43.040279)">
      <path style="fill:#C5142C;" d="M256,429.714c-5.049,0-9.143-4.094-9.143-9.143v-97.524c0-5.049,4.094-9.143,9.143-9.143 c5.051,0,9.143,4.094,9.143,9.143v97.524C265.143,425.621,261.051,429.714,256,429.714z"/>
      <path style="fill:#C5142C;" d="M158.465,429.716c-4.545,0-8.483-3.384-9.061-8.01l-12.19-97.524 c-0.627-5.01,2.927-9.579,7.938-10.206c5.007-0.631,9.579,2.928,10.206,7.938l12.19,97.524c0.627,5.01-2.927,9.579-7.938,10.206 C159.226,429.691,158.843,429.716,158.465,429.716z"/>
      <path style="fill:#C5142C;" d="M353.536,429.716c-0.379,0-0.761-0.024-1.146-0.072c-5.009-0.627-8.564-5.196-7.938-10.206 l12.19-97.524c0.627-5.012,5.194-8.565,10.207-7.938c5.009,0.627,8.564,5.196,7.938,10.206l-12.19,97.524 C362.018,426.331,358.078,429.716,353.536,429.716z"/>
    </g>
  </g>
</svg>